<svg width="1248" height="706" viewBox="0 0 1248 706" fill="none" xmlns="http://www.w3.org/2000/svg">
<path d="M5.418 633.85V642.894H7.546V644H1.54V642.894H4.13V636.062H1.54V635.18C1.96 635.171 2.32867 635.147 2.646 635.11C2.97267 635.073 3.25733 635.007 3.5 634.914C3.74267 634.821 3.948 634.69 4.116 634.522C4.29333 634.354 4.44733 634.13 4.578 633.85H5.418ZM13.5588 644.182C12.9148 644.182 12.3688 644.056 11.9208 643.804C11.4728 643.543 11.1088 643.179 10.8288 642.712C10.5488 642.245 10.3434 641.685 10.2128 641.032C10.0821 640.379 10.0168 639.66 10.0168 638.876C10.0168 638.092 10.0821 637.378 10.2128 636.734C10.3434 636.09 10.5488 635.544 10.8288 635.096C11.1088 634.639 11.4728 634.289 11.9208 634.046C12.3688 633.794 12.9148 633.668 13.5588 633.668C14.2028 633.668 14.7488 633.794 15.1968 634.046C15.6448 634.289 16.0088 634.639 16.2888 635.096C16.5781 635.544 16.7881 636.09 16.9188 636.734C17.0494 637.378 17.1148 638.092 17.1148 638.876C17.1148 639.66 17.0494 640.379 16.9188 641.032C16.7881 641.685 16.5781 642.245 16.2888 642.712C16.0088 643.179 15.6448 643.543 15.1968 643.804C14.7488 644.056 14.2028 644.182 13.5588 644.182ZM11.3188 638.876C11.3188 638.969 11.3188 639.058 11.3188 639.142C11.3188 639.226 11.3234 639.31 11.3328 639.394L15.7148 637.392C15.4908 635.637 14.7721 634.76 13.5588 634.76C12.7934 634.76 12.2288 635.101 11.8648 635.782C11.5008 636.454 11.3188 637.485 11.3188 638.876ZM13.5588 643.076C14.3241 643.076 14.8888 642.726 15.2528 642.026C15.6261 641.317 15.8128 640.267 15.8128 638.876C15.8128 638.801 15.8128 638.727 15.8128 638.652C15.8128 638.577 15.8081 638.503 15.7988 638.428L11.4168 640.458C11.6594 642.203 12.3734 643.076 13.5588 643.076ZM22.6096 644.182C21.9656 644.182 21.4196 644.056 20.9716 643.804C20.5236 643.543 20.1596 643.179 19.8796 642.712C19.5996 642.245 19.3942 641.685 19.2636 641.032C19.1329 640.379 19.0676 639.66 19.0676 638.876C19.0676 638.092 19.1329 637.378 19.2636 636.734C19.3942 636.09 19.5996 635.544 19.8796 635.096C20.1596 634.639 20.5236 634.289 20.9716 634.046C21.4196 633.794 21.9656 633.668 22.6096 633.668C23.2536 633.668 23.7996 633.794 24.2476 634.046C24.6956 634.289 25.0596 634.639 25.3396 635.096C25.6289 635.544 25.8389 636.09 25.9696 636.734C26.1002 637.378 26.1656 638.092 26.1656 638.876C26.1656 639.66 26.1002 640.379 25.9696 641.032C25.8389 641.685 25.6289 642.245 25.3396 642.712C25.0596 643.179 24.6956 643.543 24.2476 643.804C23.7996 644.056 23.2536 644.182 22.6096 644.182ZM20.3696 638.876C20.3696 638.969 20.3696 639.058 20.3696 639.142C20.3696 639.226 20.3742 639.31 20.3836 639.394L24.7656 637.392C24.5416 635.637 23.8229 634.76 22.6096 634.76C21.8442 634.76 21.2796 635.101 20.9156 635.782C20.5516 636.454 20.3696 637.485 20.3696 638.876ZM22.6096 643.076C23.3749 643.076 23.9396 642.726 24.3036 642.026C24.6769 641.317 24.8636 640.267 24.8636 638.876C24.8636 638.801 24.8636 638.727 24.8636 638.652C24.8636 638.577 24.8589 638.503 24.8496 638.428L20.4676 640.458C20.7102 642.203 21.4242 643.076 22.6096 643.076ZM29.5463 638.708C28.893 638.708 28.403 638.475 28.0763 638.008C27.759 637.541 27.6003 636.935 27.6003 636.188C27.6003 635.423 27.759 634.811 28.0763 634.354C28.403 633.897 28.893 633.668 29.5463 633.668C30.209 633.668 30.699 633.897 31.0163 634.354C31.343 634.811 31.5063 635.423 31.5063 636.188C31.5063 636.561 31.4643 636.902 31.3803 637.21C31.3057 637.518 31.1843 637.784 31.0163 638.008C30.8577 638.232 30.6523 638.405 30.4003 638.526C30.1577 638.647 29.873 638.708 29.5463 638.708ZM29.5463 637.854C29.8543 637.854 30.0923 637.714 30.2603 637.434C30.4283 637.145 30.5123 636.729 30.5123 636.188C30.5123 635.628 30.4283 635.213 30.2603 634.942C30.0923 634.662 29.8543 634.522 29.5463 634.522C28.9117 634.522 28.5943 635.077 28.5943 636.188C28.5943 636.729 28.6737 637.145 28.8323 637.434C28.991 637.714 29.229 637.854 29.5463 637.854ZM27.6283 644L34.6283 633.85H35.7483L28.7343 644H27.6283ZM33.7603 644.182C33.0977 644.182 32.603 643.949 32.2763 643.482C31.959 643.015 31.8003 642.404 31.8003 641.648C31.8003 640.883 31.959 640.271 32.2763 639.814C32.603 639.357 33.0977 639.128 33.7603 639.128C34.4137 639.128 34.899 639.357 35.2163 639.814C35.543 640.271 35.7063 640.883 35.7063 641.648C35.7063 642.404 35.543 643.015 35.2163 643.482C34.899 643.949 34.4137 644.182 33.7603 644.182ZM33.7603 643.328C34.0683 643.328 34.3017 643.188 34.4603 642.908C34.6283 642.619 34.7123 642.199 34.7123 641.648C34.7123 640.547 34.395 639.996 33.7603 639.996C33.1163 639.996 32.7943 640.547 32.7943 641.648C32.7943 642.199 32.8737 642.619 33.0323 642.908C33.191 643.188 33.4337 643.328 33.7603 643.328Z" fill="#302F2D"/>
<path d="M4.508 504.076C4.79733 504.076 5.07267 504.025 5.334 503.922C5.59533 503.81 5.824 503.651 6.02 503.446C6.216 503.241 6.37 502.989 6.482 502.69C6.594 502.391 6.65 502.051 6.65 501.668C6.65 501.257 6.58467 500.907 6.454 500.618C6.33267 500.319 6.16933 500.077 5.964 499.89C5.75867 499.703 5.52533 499.568 5.264 499.484C5.00267 499.391 4.74133 499.344 4.48 499.344C4.23733 499.344 4.01333 499.377 3.808 499.442C3.612 499.507 3.43467 499.591 3.276 499.694C3.11733 499.797 2.982 499.913 2.87 500.044C2.76733 500.165 2.688 500.287 2.632 500.408L1.288 500.352L1.946 494.85H7.574V495.942H3.038L2.674 498.98C2.94467 498.719 3.25733 498.527 3.612 498.406C3.976 498.285 4.36333 498.224 4.774 498.224C5.194 498.224 5.6 498.299 5.992 498.448C6.384 498.597 6.72933 498.821 7.028 499.12C7.32667 499.409 7.56467 499.769 7.742 500.198C7.92867 500.618 8.022 501.103 8.022 501.654C8.022 502.233 7.924 502.741 7.728 503.18C7.532 503.619 7.266 503.987 6.93 504.286C6.60333 504.575 6.22533 504.799 5.796 504.958C5.376 505.107 4.942 505.182 4.494 505.182C3.934 505.182 3.43933 505.093 3.01 504.916C2.59 504.739 2.23533 504.501 1.946 504.202C1.666 503.903 1.44667 503.563 1.288 503.18C1.12933 502.788 1.036 502.387 1.008 501.976H2.31C2.38467 502.592 2.59933 503.096 2.954 503.488C3.30867 503.88 3.82667 504.076 4.508 504.076ZM13.5588 505.182C12.9148 505.182 12.3688 505.056 11.9208 504.804C11.4728 504.543 11.1088 504.179 10.8288 503.712C10.5488 503.245 10.3434 502.685 10.2128 502.032C10.0821 501.379 10.0168 500.66 10.0168 499.876C10.0168 499.092 10.0821 498.378 10.2128 497.734C10.3434 497.09 10.5488 496.544 10.8288 496.096C11.1088 495.639 11.4728 495.289 11.9208 495.046C12.3688 494.794 12.9148 494.668 13.5588 494.668C14.2028 494.668 14.7488 494.794 15.1968 495.046C15.6448 495.289 16.0088 495.639 16.2888 496.096C16.5781 496.544 16.7881 497.09 16.9188 497.734C17.0494 498.378 17.1148 499.092 17.1148 499.876C17.1148 500.66 17.0494 501.379 16.9188 502.032C16.7881 502.685 16.5781 503.245 16.2888 503.712C16.0088 504.179 15.6448 504.543 15.1968 504.804C14.7488 505.056 14.2028 505.182 13.5588 505.182ZM11.3188 499.876C11.3188 499.969 11.3188 500.058 11.3188 500.142C11.3188 500.226 11.3234 500.31 11.3328 500.394L15.7148 498.392C15.4908 496.637 14.7721 495.76 13.5588 495.76C12.7934 495.76 12.2288 496.101 11.8648 496.782C11.5008 497.454 11.3188 498.485 11.3188 499.876ZM13.5588 504.076C14.3241 504.076 14.8888 503.726 15.2528 503.026C15.6261 502.317 15.8128 501.267 15.8128 499.876C15.8128 499.801 15.8128 499.727 15.8128 499.652C15.8128 499.577 15.8081 499.503 15.7988 499.428L11.4168 501.458C11.6594 503.203 12.3734 504.076 13.5588 504.076ZM20.4956 499.708C19.8422 499.708 19.3522 499.475 19.0256 499.008C18.7082 498.541 18.5496 497.935 18.5496 497.188C18.5496 496.423 18.7082 495.811 19.0256 495.354C19.3522 494.897 19.8422 494.668 20.4956 494.668C21.1582 494.668 21.6482 494.897 21.9656 495.354C22.2922 495.811 22.4556 496.423 22.4556 497.188C22.4556 497.561 22.4136 497.902 22.3296 498.21C22.2549 498.518 22.1336 498.784 21.9656 499.008C21.8069 499.232 21.6016 499.405 21.3496 499.526C21.1069 499.647 20.8222 499.708 20.4956 499.708ZM20.4956 498.854C20.8036 498.854 21.0416 498.714 21.2096 498.434C21.3776 498.145 21.4616 497.729 21.4616 497.188C21.4616 496.628 21.3776 496.213 21.2096 495.942C21.0416 495.662 20.8036 495.522 20.4956 495.522C19.8609 495.522 19.5436 496.077 19.5436 497.188C19.5436 497.729 19.6229 498.145 19.7816 498.434C19.9402 498.714 20.1782 498.854 20.4956 498.854ZM18.5776 505L25.5776 494.85H26.6976L19.6836 505H18.5776ZM24.7096 505.182C24.0469 505.182 23.5522 504.949 23.2256 504.482C22.9082 504.015 22.7496 503.404 22.7496 502.648C22.7496 501.883 22.9082 501.271 23.2256 500.814C23.5522 500.357 24.0469 500.128 24.7096 500.128C25.3629 500.128 25.8482 500.357 26.1656 500.814C26.4922 501.271 26.6556 501.883 26.6556 502.648C26.6556 503.404 26.4922 504.015 26.1656 504.482C25.8482 504.949 25.3629 505.182 24.7096 505.182ZM24.7096 504.328C25.0176 504.328 25.2509 504.188 25.4096 503.908C25.5776 503.619 25.6616 503.199 25.6616 502.648C25.6616 501.547 25.3442 500.996 24.7096 500.996C24.0656 500.996 23.7436 501.547 23.7436 502.648C23.7436 503.199 23.8229 503.619 23.9816 503.908C24.1402 504.188 24.3829 504.328 24.7096 504.328Z" fill="#302F2D"/>
<path d="M4.508 366.182C3.864 366.182 3.318 366.056 2.87 365.804C2.422 365.543 2.058 365.179 1.778 364.712C1.498 364.245 1.29267 363.685 1.162 363.032C1.03133 362.379 0.966 361.66 0.966 360.876C0.966 360.092 1.03133 359.378 1.162 358.734C1.29267 358.09 1.498 357.544 1.778 357.096C2.058 356.639 2.422 356.289 2.87 356.046C3.318 355.794 3.864 355.668 4.508 355.668C5.152 355.668 5.698 355.794 6.146 356.046C6.594 356.289 6.958 356.639 7.238 357.096C7.52733 357.544 7.73733 358.09 7.868 358.734C7.99867 359.378 8.064 360.092 8.064 360.876C8.064 361.66 7.99867 362.379 7.868 363.032C7.73733 363.685 7.52733 364.245 7.238 364.712C6.958 365.179 6.594 365.543 6.146 365.804C5.698 366.056 5.152 366.182 4.508 366.182ZM2.268 360.876C2.268 360.969 2.268 361.058 2.268 361.142C2.268 361.226 2.27267 361.31 2.282 361.394L6.664 359.392C6.44 357.637 5.72133 356.76 4.508 356.76C3.74267 356.76 3.178 357.101 2.814 357.782C2.45 358.454 2.268 359.485 2.268 360.876ZM4.508 365.076C5.27333 365.076 5.838 364.726 6.202 364.026C6.57533 363.317 6.762 362.267 6.762 360.876C6.762 360.801 6.762 360.727 6.762 360.652C6.762 360.577 6.75733 360.503 6.748 360.428L2.366 362.458C2.60867 364.203 3.32267 365.076 4.508 365.076ZM11.4448 360.708C10.7914 360.708 10.3014 360.475 9.97478 360.008C9.65745 359.541 9.49878 358.935 9.49878 358.188C9.49878 357.423 9.65745 356.811 9.97478 356.354C10.3014 355.897 10.7914 355.668 11.4448 355.668C12.1074 355.668 12.5974 355.897 12.9148 356.354C13.2414 356.811 13.4048 357.423 13.4048 358.188C13.4048 358.561 13.3628 358.902 13.2788 359.21C13.2041 359.518 13.0828 359.784 12.9148 360.008C12.7561 360.232 12.5508 360.405 12.2988 360.526C12.0561 360.647 11.7714 360.708 11.4448 360.708ZM11.4448 359.854C11.7528 359.854 11.9908 359.714 12.1588 359.434C12.3268 359.145 12.4108 358.729 12.4108 358.188C12.4108 357.628 12.3268 357.213 12.1588 356.942C11.9908 356.662 11.7528 356.522 11.4448 356.522C10.8101 356.522 10.4928 357.077 10.4928 358.188C10.4928 358.729 10.5721 359.145 10.7308 359.434C10.8894 359.714 11.1274 359.854 11.4448 359.854ZM9.52678 366L16.5268 355.85H17.6468L10.6328 366H9.52678ZM15.6588 366.182C14.9961 366.182 14.5014 365.949 14.1748 365.482C13.8574 365.015 13.6988 364.404 13.6988 363.648C13.6988 362.883 13.8574 362.271 14.1748 361.814C14.5014 361.357 14.9961 361.128 15.6588 361.128C16.3121 361.128 16.7974 361.357 17.1148 361.814C17.4414 362.271 17.6048 362.883 17.6048 363.648C17.6048 364.404 17.4414 365.015 17.1148 365.482C16.7974 365.949 16.3121 366.182 15.6588 366.182ZM15.6588 365.328C15.9668 365.328 16.2001 365.188 16.3588 364.908C16.5268 364.619 16.6108 364.199 16.6108 363.648C16.6108 362.547 16.2934 361.996 15.6588 361.996C15.0148 361.996 14.6928 362.547 14.6928 363.648C14.6928 364.199 14.7721 364.619 14.9308 364.908C15.0894 365.188 15.3321 365.328 15.6588 365.328Z" fill="#302F2D"/>
<path d="M4.508 226.076C4.79733 226.076 5.07267 226.025 5.334 225.922C5.59533 225.81 5.824 225.651 6.02 225.446C6.216 225.241 6.37 224.989 6.482 224.69C6.594 224.391 6.65 224.051 6.65 223.668C6.65 223.257 6.58467 222.907 6.454 222.618C6.33267 222.319 6.16933 222.077 5.964 221.89C5.75867 221.703 5.52533 221.568 5.264 221.484C5.00267 221.391 4.74133 221.344 4.48 221.344C4.23733 221.344 4.01333 221.377 3.808 221.442C3.612 221.507 3.43467 221.591 3.276 221.694C3.11733 221.797 2.982 221.913 2.87 222.044C2.76733 222.165 2.688 222.287 2.632 222.408L1.288 222.352L1.946 216.85H7.574V217.942H3.038L2.674 220.98C2.94467 220.719 3.25733 220.527 3.612 220.406C3.976 220.285 4.36333 220.224 4.774 220.224C5.194 220.224 5.6 220.299 5.992 220.448C6.384 220.597 6.72933 220.821 7.028 221.12C7.32667 221.409 7.56467 221.769 7.742 222.198C7.92867 222.618 8.022 223.103 8.022 223.654C8.022 224.233 7.924 224.741 7.728 225.18C7.532 225.619 7.266 225.987 6.93 226.286C6.60333 226.575 6.22533 226.799 5.796 226.958C5.376 227.107 4.942 227.182 4.494 227.182C3.934 227.182 3.43933 227.093 3.01 226.916C2.59 226.739 2.23533 226.501 1.946 226.202C1.666 225.903 1.44667 225.563 1.288 225.18C1.12933 224.788 1.036 224.387 1.008 223.976H2.31C2.38467 224.592 2.59933 225.096 2.954 225.488C3.30867 225.88 3.82667 226.076 4.508 226.076ZM13.5588 227.182C12.9148 227.182 12.3688 227.056 11.9208 226.804C11.4728 226.543 11.1088 226.179 10.8288 225.712C10.5488 225.245 10.3434 224.685 10.2128 224.032C10.0821 223.379 10.0168 222.66 10.0168 221.876C10.0168 221.092 10.0821 220.378 10.2128 219.734C10.3434 219.09 10.5488 218.544 10.8288 218.096C11.1088 217.639 11.4728 217.289 11.9208 217.046C12.3688 216.794 12.9148 216.668 13.5588 216.668C14.2028 216.668 14.7488 216.794 15.1968 217.046C15.6448 217.289 16.0088 217.639 16.2888 218.096C16.5781 218.544 16.7881 219.09 16.9188 219.734C17.0494 220.378 17.1148 221.092 17.1148 221.876C17.1148 222.66 17.0494 223.379 16.9188 224.032C16.7881 224.685 16.5781 225.245 16.2888 225.712C16.0088 226.179 15.6448 226.543 15.1968 226.804C14.7488 227.056 14.2028 227.182 13.5588 227.182ZM11.3188 221.876C11.3188 221.969 11.3188 222.058 11.3188 222.142C11.3188 222.226 11.3234 222.31 11.3328 222.394L15.7148 220.392C15.4908 218.637 14.7721 217.76 13.5588 217.76C12.7934 217.76 12.2288 218.101 11.8648 218.782C11.5008 219.454 11.3188 220.485 11.3188 221.876ZM13.5588 226.076C14.3241 226.076 14.8888 225.726 15.2528 225.026C15.6261 224.317 15.8128 223.267 15.8128 221.876C15.8128 221.801 15.8128 221.727 15.8128 221.652C15.8128 221.577 15.8081 221.503 15.7988 221.428L11.4168 223.458C11.6594 225.203 12.3734 226.076 13.5588 226.076ZM20.4956 221.708C19.8422 221.708 19.3522 221.475 19.0256 221.008C18.7082 220.541 18.5496 219.935 18.5496 219.188C18.5496 218.423 18.7082 217.811 19.0256 217.354C19.3522 216.897 19.8422 216.668 20.4956 216.668C21.1582 216.668 21.6482 216.897 21.9656 217.354C22.2922 217.811 22.4556 218.423 22.4556 219.188C22.4556 219.561 22.4136 219.902 22.3296 220.21C22.2549 220.518 22.1336 220.784 21.9656 221.008C21.8069 221.232 21.6016 221.405 21.3496 221.526C21.1069 221.647 20.8222 221.708 20.4956 221.708ZM20.4956 220.854C20.8036 220.854 21.0416 220.714 21.2096 220.434C21.3776 220.145 21.4616 219.729 21.4616 219.188C21.4616 218.628 21.3776 218.213 21.2096 217.942C21.0416 217.662 20.8036 217.522 20.4956 217.522C19.8609 217.522 19.5436 218.077 19.5436 219.188C19.5436 219.729 19.6229 220.145 19.7816 220.434C19.9402 220.714 20.1782 220.854 20.4956 220.854ZM18.5776 227L25.5776 216.85H26.6976L19.6836 227H18.5776ZM24.7096 227.182C24.0469 227.182 23.5522 226.949 23.2256 226.482C22.9082 226.015 22.7496 225.404 22.7496 224.648C22.7496 223.883 22.9082 223.271 23.2256 222.814C23.5522 222.357 24.0469 222.128 24.7096 222.128C25.3629 222.128 25.8482 222.357 26.1656 222.814C26.4922 223.271 26.6556 223.883 26.6556 224.648C26.6556 225.404 26.4922 226.015 26.1656 226.482C25.8482 226.949 25.3629 227.182 24.7096 227.182ZM24.7096 226.328C25.0176 226.328 25.2509 226.188 25.4096 225.908C25.5776 225.619 25.6616 225.199 25.6616 224.648C25.6616 223.547 25.3442 222.996 24.7096 222.996C24.0656 222.996 23.7436 223.547 23.7436 224.648C23.7436 225.199 23.8229 225.619 23.9816 225.908C24.1402 226.188 24.3829 226.328 24.7096 226.328Z" fill="#302F2D"/>
<path d="M5.418 77.85V86.894H7.546V88H1.54V86.894H4.13V80.062H1.54V79.18C1.96 79.1707 2.32867 79.1473 2.646 79.11C2.97267 79.0727 3.25733 79.0073 3.5 78.914C3.74267 78.8207 3.948 78.69 4.116 78.522C4.29333 78.354 4.44733 78.13 4.578 77.85H5.418ZM13.5588 88.182C12.9148 88.182 12.3688 88.056 11.9208 87.804C11.4728 87.5427 11.1088 87.1787 10.8288 86.712C10.5488 86.2453 10.3434 85.6853 10.2128 85.032C10.0821 84.3787 10.0168 83.66 10.0168 82.876C10.0168 82.092 10.0821 81.378 10.2128 80.734C10.3434 80.09 10.5488 79.544 10.8288 79.096C11.1088 78.6387 11.4728 78.2887 11.9208 78.046C12.3688 77.794 12.9148 77.668 13.5588 77.668C14.2028 77.668 14.7488 77.794 15.1968 78.046C15.6448 78.2887 16.0088 78.6387 16.2888 79.096C16.5781 79.544 16.7881 80.09 16.9188 80.734C17.0494 81.378 17.1148 82.092 17.1148 82.876C17.1148 83.66 17.0494 84.3787 16.9188 85.032C16.7881 85.6853 16.5781 86.2453 16.2888 86.712C16.0088 87.1787 15.6448 87.5427 15.1968 87.804C14.7488 88.056 14.2028 88.182 13.5588 88.182ZM11.3188 82.876C11.3188 82.9693 11.3188 83.058 11.3188 83.142C11.3188 83.226 11.3234 83.31 11.3328 83.394L15.7148 81.392C15.4908 79.6373 14.7721 78.76 13.5588 78.76C12.7934 78.76 12.2288 79.1007 11.8648 79.782C11.5008 80.454 11.3188 81.4853 11.3188 82.876ZM13.5588 87.076C14.3241 87.076 14.8888 86.726 15.2528 86.026C15.6261 85.3167 15.8128 84.2667 15.8128 82.876C15.8128 82.8013 15.8128 82.7267 15.8128 82.652C15.8128 82.5773 15.8081 82.5027 15.7988 82.428L11.4168 84.458C11.6594 86.2033 12.3734 87.076 13.5588 87.076ZM22.6096 88.182C21.9656 88.182 21.4196 88.056 20.9716 87.804C20.5236 87.5427 20.1596 87.1787 19.8796 86.712C19.5996 86.2453 19.3942 85.6853 19.2636 85.032C19.1329 84.3787 19.0676 83.66 19.0676 82.876C19.0676 82.092 19.1329 81.378 19.2636 80.734C19.3942 80.09 19.5996 79.544 19.8796 79.096C20.1596 78.6387 20.5236 78.2887 20.9716 78.046C21.4196 77.794 21.9656 77.668 22.6096 77.668C23.2536 77.668 23.7996 77.794 24.2476 78.046C24.6956 78.2887 25.0596 78.6387 25.3396 79.096C25.6289 79.544 25.8389 80.09 25.9696 80.734C26.1002 81.378 26.1656 82.092 26.1656 82.876C26.1656 83.66 26.1002 84.3787 25.9696 85.032C25.8389 85.6853 25.6289 86.2453 25.3396 86.712C25.0596 87.1787 24.6956 87.5427 24.2476 87.804C23.7996 88.056 23.2536 88.182 22.6096 88.182ZM20.3696 82.876C20.3696 82.9693 20.3696 83.058 20.3696 83.142C20.3696 83.226 20.3742 83.31 20.3836 83.394L24.7656 81.392C24.5416 79.6373 23.8229 78.76 22.6096 78.76C21.8442 78.76 21.2796 79.1007 20.9156 79.782C20.5516 80.454 20.3696 81.4853 20.3696 82.876ZM22.6096 87.076C23.3749 87.076 23.9396 86.726 24.3036 86.026C24.6769 85.3167 24.8636 84.2667 24.8636 82.876C24.8636 82.8013 24.8636 82.7267 24.8636 82.652C24.8636 82.5773 24.8589 82.5027 24.8496 82.428L20.4676 84.458C20.7102 86.2033 21.4242 87.076 22.6096 87.076ZM29.5463 82.708C28.893 82.708 28.403 82.4747 28.0763 82.008C27.759 81.5413 27.6003 80.9347 27.6003 80.188C27.6003 79.4227 27.759 78.8113 28.0763 78.354C28.403 77.8967 28.893 77.668 29.5463 77.668C30.209 77.668 30.699 77.8967 31.0163 78.354C31.343 78.8113 31.5063 79.4227 31.5063 80.188C31.5063 80.5613 31.4643 80.902 31.3803 81.21C31.3057 81.518 31.1843 81.784 31.0163 82.008C30.8577 82.232 30.6523 82.4047 30.4003 82.526C30.1577 82.6473 29.873 82.708 29.5463 82.708ZM29.5463 81.854C29.8543 81.854 30.0923 81.714 30.2603 81.434C30.4283 81.1447 30.5123 80.7293 30.5123 80.188C30.5123 79.628 30.4283 79.2127 30.2603 78.942C30.0923 78.662 29.8543 78.522 29.5463 78.522C28.9117 78.522 28.5943 79.0773 28.5943 80.188C28.5943 80.7293 28.6737 81.1447 28.8323 81.434C28.991 81.714 29.229 81.854 29.5463 81.854ZM27.6283 88L34.6283 77.85H35.7483L28.7343 88H27.6283ZM33.7603 88.182C33.0977 88.182 32.603 87.9487 32.2763 87.482C31.959 87.0153 31.8003 86.404 31.8003 85.648C31.8003 84.8827 31.959 84.2713 32.2763 83.814C32.603 83.3567 33.0977 83.128 33.7603 83.128C34.4137 83.128 34.899 83.3567 35.2163 83.814C35.543 84.2713 35.7063 84.8827 35.7063 85.648C35.7063 86.404 35.543 87.0153 35.2163 87.482C34.899 87.9487 34.4137 88.182 33.7603 88.182ZM33.7603 87.328C34.0683 87.328 34.3017 87.188 34.4603 86.908C34.6283 86.6187 34.7123 86.1987 34.7123 85.648C34.7123 84.5467 34.395 83.996 33.7603 83.996C33.1163 83.996 32.7943 84.5467 32.7943 85.648C32.7943 86.1987 32.8737 86.6187 33.0323 86.908C33.191 87.188 33.4337 87.328 33.7603 87.328Z" fill="#302F2D"/>
<rect x="86" y="362" width="81" height="50" fill="#CCD3FA"/>
<rect x="192" y="362" width="81" height="26" fill="#CCD3FA"/>
<rect x="297" y="362" width="81" height="50" fill="#CCD3FA"/>
<rect x="403" y="362" width="81" height="60" fill="#CCD3FA"/>
<rect x="508" y="362" width="82" height="36" fill="#CCD3FA"/>
<rect x="508" y="317" width="82" height="43" fill="#4C67EF"/>
<rect x="403" y="340" width="81" height="20" fill="#4C67EF"/>
<rect x="619" y="275" width="81" height="85" fill="#4C67EF"/>
<path d="M724 236H805V360H724V236Z" fill="#4C67EF"/>
<rect x="831" y="262" width="81" height="98" fill="#4C67EF"/>
<rect x="938" y="275" width="81" height="85" fill="#4C67EF"/>
<rect x="1044" y="317" width="82" height="43" fill="#4C67EF"/>
<rect x="1151" y="344" width="81" height="16" fill="#4C67EF"/>
<path d="M435.02 694.432H436.856L439.1 698.308C439.724 699.356 440.24 700.304 440.648 701.152H440.696C440.656 700.312 440.636 699.244 440.636 697.948V694.432H442.088V703H440.24L437.996 699.124C437.268 697.86 436.756 696.912 436.46 696.28H436.412C436.452 697.12 436.472 698.188 436.472 699.484V703H435.02V694.432ZM445.001 700.216C445.057 700.848 445.233 701.332 445.529 701.668C445.825 701.996 446.241 702.16 446.777 702.16C447.169 702.16 447.505 702.06 447.785 701.86C448.065 701.66 448.245 701.376 448.325 701.008H449.741C449.661 701.688 449.345 702.216 448.793 702.592C448.249 702.96 447.585 703.144 446.801 703.144C445.777 703.144 444.985 702.852 444.425 702.268C443.865 701.676 443.585 700.848 443.585 699.784C443.585 698.728 443.865 697.908 444.425 697.324C444.985 696.732 445.749 696.436 446.717 696.436C447.741 696.436 448.517 696.74 449.045 697.348C449.581 697.956 449.849 698.852 449.849 700.036V700.216H445.001ZM448.421 699.256C448.357 698.664 448.181 698.212 447.893 697.9C447.605 697.58 447.213 697.42 446.717 697.42C446.229 697.42 445.837 697.58 445.541 697.9C445.253 698.212 445.077 698.664 445.013 699.256H448.421ZM451.515 695.212H452.955V696.58H454.239V697.636H452.955V701.392C452.955 701.592 452.991 701.74 453.063 701.836C453.143 701.924 453.271 701.968 453.447 701.968H454.179V703H453.003C452.475 703 452.095 702.868 451.863 702.604C451.631 702.34 451.515 701.936 451.515 701.392V697.636H450.483V696.58H451.515V695.212ZM465.707 700.312C465.635 701.224 465.263 701.936 464.591 702.448C463.927 702.952 463.059 703.204 461.987 703.204C461.091 703.204 460.335 703.016 459.719 702.64C459.111 702.256 458.655 701.728 458.351 701.056C458.047 700.376 457.895 699.596 457.895 698.716C457.895 697.836 458.047 697.06 458.351 696.388C458.655 695.708 459.111 695.18 459.719 694.804C460.335 694.42 461.091 694.228 461.987 694.228C463.075 694.228 463.939 694.464 464.579 694.936C465.227 695.4 465.587 696.088 465.659 697H464.135C464.055 696.448 463.819 696.052 463.427 695.812C463.035 695.564 462.555 695.44 461.987 695.44C461.155 695.44 460.515 695.728 460.067 696.304C459.619 696.872 459.395 697.676 459.395 698.716C459.395 699.756 459.619 700.564 460.067 701.14C460.515 701.708 461.155 701.992 461.987 701.992C462.555 701.992 463.043 701.856 463.451 701.584C463.859 701.312 464.103 700.888 464.183 700.312H465.707ZM469.602 697.432C469.194 697.432 468.866 697.512 468.618 697.672C468.378 697.824 468.242 698.056 468.21 698.368H466.782C466.838 697.08 467.778 696.436 469.602 696.436C470.546 696.436 471.25 696.62 471.714 696.988C472.186 697.356 472.422 697.88 472.422 698.56V701.488C472.422 701.776 472.426 702.032 472.434 702.256C472.442 702.472 472.458 702.72 472.482 703H471.042C471.002 702.632 470.982 702.316 470.982 702.052H470.946C470.746 702.364 470.458 702.624 470.082 702.832C469.714 703.04 469.258 703.144 468.714 703.144C468.058 703.144 467.53 702.968 467.13 702.616C466.738 702.264 466.542 701.772 466.542 701.14C466.542 699.932 467.322 699.232 468.882 699.04L470.982 698.776V698.572C470.982 697.812 470.522 697.432 469.602 697.432ZM467.982 701.104C467.982 701.424 468.082 701.672 468.282 701.848C468.49 702.024 468.774 702.112 469.134 702.112C469.414 702.112 469.698 702.04 469.986 701.896C470.282 701.744 470.526 701.52 470.718 701.224C470.918 700.92 471.018 700.548 471.018 700.108V699.76L469.254 699.988C468.406 700.116 467.982 700.488 467.982 701.104ZM476.367 697.384C475.999 697.384 475.699 697.452 475.467 697.588C475.235 697.724 475.119 697.928 475.119 698.2C475.119 698.448 475.203 698.632 475.371 698.752C475.539 698.872 475.831 698.976 476.247 699.064L476.835 699.184C477.387 699.296 477.827 699.42 478.155 699.556C478.483 699.692 478.735 699.884 478.911 700.132C479.095 700.38 479.187 700.716 479.187 701.14C479.187 701.524 479.075 701.868 478.851 702.172C478.627 702.476 478.303 702.716 477.879 702.892C477.463 703.06 476.975 703.144 476.415 703.144C475.495 703.144 474.803 702.972 474.339 702.628C473.875 702.284 473.627 701.756 473.595 701.044H475.035C475.083 701.812 475.543 702.196 476.415 702.196C476.839 702.196 477.171 702.12 477.411 701.968C477.659 701.808 477.783 701.584 477.783 701.296C477.783 701.032 477.691 700.84 477.507 700.72C477.331 700.592 477.023 700.484 476.583 700.396L475.995 700.264C475.459 700.16 475.027 700.04 474.699 699.904C474.379 699.76 474.135 699.568 473.967 699.328C473.799 699.08 473.715 698.756 473.715 698.356C473.715 697.988 473.827 697.66 474.051 697.372C474.283 697.076 474.599 696.848 474.999 696.688C475.407 696.52 475.863 696.436 476.367 696.436C477.159 696.436 477.799 696.6 478.287 696.928C478.775 697.248 479.035 697.728 479.067 698.368H477.627C477.611 698.056 477.487 697.816 477.255 697.648C477.023 697.472 476.727 697.384 476.367 697.384ZM481.841 694.432V697.528H481.877C482.029 697.224 482.285 696.968 482.645 696.76C483.005 696.544 483.425 696.436 483.905 696.436C484.617 696.436 485.181 696.648 485.597 697.072C486.021 697.488 486.233 698.068 486.233 698.812V703H484.793V699.016C484.793 698.536 484.677 698.168 484.445 697.912C484.213 697.656 483.889 697.528 483.473 697.528C482.969 697.528 482.569 697.7 482.273 698.044C481.985 698.38 481.841 698.832 481.841 699.4V703H480.401V694.432H481.841ZM497.271 697.12C497.271 697.632 497.155 698.092 496.923 698.5C496.691 698.9 496.347 699.22 495.891 699.46C495.435 699.692 494.879 699.808 494.223 699.808H492.231V703H490.731V694.432H494.223C494.879 694.432 495.435 694.548 495.891 694.78C496.347 695.012 496.691 695.332 496.923 695.74C497.155 696.148 497.271 696.608 497.271 697.12ZM495.771 697.12C495.771 696.696 495.635 696.344 495.363 696.064C495.091 695.784 494.735 695.644 494.295 695.644H492.231V698.596H494.295C494.735 698.596 495.091 698.456 495.363 698.176C495.635 697.896 495.771 697.544 495.771 697.12ZM501.106 703.144C500.106 703.144 499.318 702.844 498.742 702.244C498.166 701.644 497.878 700.824 497.878 699.784C497.878 698.744 498.166 697.928 498.742 697.336C499.318 696.736 500.106 696.436 501.106 696.436C502.106 696.436 502.89 696.736 503.458 697.336C504.026 697.928 504.31 698.744 504.31 699.784C504.31 700.832 504.022 701.656 503.446 702.256C502.878 702.848 502.098 703.144 501.106 703.144ZM501.106 702.1C501.682 702.1 502.118 701.896 502.414 701.488C502.718 701.08 502.87 700.512 502.87 699.784C502.87 699.056 502.718 698.492 502.414 698.092C502.118 697.684 501.682 697.48 501.106 697.48C500.53 697.48 500.086 697.684 499.774 698.092C499.47 698.5 499.318 699.064 499.318 699.784C499.318 700.504 499.47 701.072 499.774 701.488C500.086 701.896 500.53 702.1 501.106 702.1ZM507.961 697.384C507.593 697.384 507.293 697.452 507.061 697.588C506.829 697.724 506.713 697.928 506.713 698.2C506.713 698.448 506.797 698.632 506.965 698.752C507.133 698.872 507.425 698.976 507.841 699.064L508.429 699.184C508.981 699.296 509.421 699.42 509.749 699.556C510.077 699.692 510.329 699.884 510.505 700.132C510.689 700.38 510.781 700.716 510.781 701.14C510.781 701.524 510.669 701.868 510.445 702.172C510.221 702.476 509.897 702.716 509.473 702.892C509.057 703.06 508.569 703.144 508.009 703.144C507.089 703.144 506.397 702.972 505.933 702.628C505.469 702.284 505.221 701.756 505.189 701.044H506.629C506.677 701.812 507.137 702.196 508.009 702.196C508.433 702.196 508.765 702.12 509.005 701.968C509.253 701.808 509.377 701.584 509.377 701.296C509.377 701.032 509.285 700.84 509.101 700.72C508.925 700.592 508.617 700.484 508.177 700.396L507.589 700.264C507.053 700.16 506.621 700.04 506.293 699.904C505.973 699.76 505.729 699.568 505.561 699.328C505.393 699.08 505.309 698.756 505.309 698.356C505.309 697.988 505.421 697.66 505.645 697.372C505.877 697.076 506.193 696.848 506.593 696.688C507.001 696.52 507.457 696.436 507.961 696.436C508.753 696.436 509.393 696.6 509.881 696.928C510.369 697.248 510.629 697.728 510.661 698.368H509.221C509.205 698.056 509.081 697.816 508.849 697.648C508.617 697.472 508.321 697.384 507.961 697.384ZM511.995 695.74V694.432H513.507V695.74H511.995ZM512.031 703V696.58H513.471V703H512.031ZM515.617 695.212H517.057V696.58H518.341V697.636H517.057V701.392C517.057 701.592 517.093 701.74 517.165 701.836C517.245 701.924 517.373 701.968 517.549 701.968H518.281V703H517.105C516.577 703 516.197 702.868 515.965 702.604C515.733 702.34 515.617 701.936 515.617 701.392V697.636H514.585V696.58H515.617V695.212ZM519.542 695.74V694.432H521.054V695.74H519.542ZM519.578 703V696.58H521.018V703H519.578ZM525.552 703.144C524.552 703.144 523.764 702.844 523.188 702.244C522.612 701.644 522.324 700.824 522.324 699.784C522.324 698.744 522.612 697.928 523.188 697.336C523.764 696.736 524.552 696.436 525.552 696.436C526.552 696.436 527.336 696.736 527.904 697.336C528.472 697.928 528.756 698.744 528.756 699.784C528.756 700.832 528.468 701.656 527.892 702.256C527.324 702.848 526.544 703.144 525.552 703.144ZM525.552 702.1C526.128 702.1 526.564 701.896 526.86 701.488C527.164 701.08 527.316 700.512 527.316 699.784C527.316 699.056 527.164 698.492 526.86 698.092C526.564 697.684 526.128 697.48 525.552 697.48C524.976 697.48 524.532 697.684 524.22 698.092C523.916 698.5 523.764 699.064 523.764 699.784C523.764 700.504 523.916 701.072 524.22 701.488C524.532 701.896 524.976 702.1 525.552 702.1ZM530.03 696.58H531.458L531.494 697.528H531.53C531.682 697.224 531.938 696.968 532.298 696.76C532.658 696.544 533.074 696.436 533.546 696.436C534.258 696.436 534.826 696.648 535.25 697.072C535.674 697.488 535.886 698.068 535.886 698.812V703H534.446V699.016C534.446 698.536 534.33 698.168 534.098 697.912C533.866 697.656 533.538 697.528 533.114 697.528C532.618 697.528 532.222 697.7 531.926 698.044C531.638 698.388 531.494 698.84 531.494 699.4V703H530.054V697.6L530.03 696.58Z" fill="#302F2D"/>
<path d="M606.316 700.312C606.244 701.224 605.872 701.936 605.2 702.448C604.536 702.952 603.668 703.204 602.596 703.204C601.7 703.204 600.944 703.016 600.328 702.64C599.72 702.256 599.264 701.728 598.96 701.056C598.656 700.376 598.504 699.596 598.504 698.716C598.504 697.836 598.656 697.06 598.96 696.388C599.264 695.708 599.72 695.18 600.328 694.804C600.944 694.42 601.7 694.228 602.596 694.228C603.684 694.228 604.548 694.464 605.188 694.936C605.836 695.4 606.196 696.088 606.268 697H604.744C604.664 696.448 604.428 696.052 604.036 695.812C603.644 695.564 603.164 695.44 602.596 695.44C601.764 695.44 601.124 695.728 600.676 696.304C600.228 696.872 600.004 697.676 600.004 698.716C600.004 699.756 600.228 700.564 600.676 701.14C601.124 701.708 601.764 701.992 602.596 701.992C603.164 701.992 603.652 701.856 604.06 701.584C604.468 701.312 604.712 700.888 604.792 700.312H606.316ZM610.211 697.432C609.803 697.432 609.475 697.512 609.227 697.672C608.987 697.824 608.851 698.056 608.819 698.368H607.391C607.447 697.08 608.387 696.436 610.211 696.436C611.155 696.436 611.859 696.62 612.323 696.988C612.795 697.356 613.031 697.88 613.031 698.56V701.488C613.031 701.776 613.035 702.032 613.043 702.256C613.051 702.472 613.067 702.72 613.091 703H611.651C611.611 702.632 611.591 702.316 611.591 702.052H611.555C611.355 702.364 611.067 702.624 610.691 702.832C610.323 703.04 609.867 703.144 609.323 703.144C608.667 703.144 608.139 702.968 607.739 702.616C607.347 702.264 607.151 701.772 607.151 701.14C607.151 699.932 607.931 699.232 609.491 699.04L611.591 698.776V698.572C611.591 697.812 611.131 697.432 610.211 697.432ZM608.591 701.104C608.591 701.424 608.691 701.672 608.891 701.848C609.099 702.024 609.383 702.112 609.743 702.112C610.023 702.112 610.307 702.04 610.595 701.896C610.891 701.744 611.135 701.52 611.327 701.224C611.527 700.92 611.627 700.548 611.627 700.108V699.76L609.863 699.988C609.015 700.116 608.591 700.488 608.591 701.104ZM620.997 699.796C620.997 700.524 620.861 701.14 620.589 701.644C620.317 702.148 619.957 702.524 619.509 702.772C619.061 703.02 618.569 703.144 618.033 703.144C617.609 703.144 617.221 703.056 616.869 702.88C616.517 702.704 616.257 702.488 616.089 702.232H616.077V705.148H614.637V698.14L614.601 696.58H616.029L616.077 697.468H616.089C616.265 697.18 616.537 696.936 616.905 696.736C617.281 696.536 617.681 696.436 618.105 696.436C618.689 696.436 619.197 696.568 619.629 696.832C620.069 697.096 620.405 697.484 620.637 697.996C620.877 698.5 620.997 699.1 620.997 699.796ZM615.957 699.796C615.957 700.492 616.113 701.048 616.425 701.464C616.745 701.872 617.185 702.076 617.745 702.076C618.305 702.076 618.745 701.872 619.065 701.464C619.393 701.048 619.557 700.492 619.557 699.796C619.557 699.1 619.393 698.544 619.065 698.128C618.745 697.712 618.305 697.504 617.745 697.504C617.185 697.504 616.745 697.712 616.425 698.128C616.113 698.544 615.957 699.1 615.957 699.796ZM622.265 695.74V694.432H623.777V695.74H622.265ZM622.301 703V696.58H623.741V703H622.301ZM625.886 695.212H627.326V696.58H628.61V697.636H627.326V701.392C627.326 701.592 627.362 701.74 627.434 701.836C627.514 701.924 627.642 701.968 627.818 701.968H628.55V703H627.374C626.846 703 626.466 702.868 626.234 702.604C626.002 702.34 625.886 701.936 625.886 701.392V697.636H624.854V696.58H625.886V695.212ZM632.524 697.432C632.116 697.432 631.788 697.512 631.54 697.672C631.3 697.824 631.164 698.056 631.132 698.368H629.704C629.76 697.08 630.7 696.436 632.524 696.436C633.468 696.436 634.172 696.62 634.636 696.988C635.108 697.356 635.344 697.88 635.344 698.56V701.488C635.344 701.776 635.348 702.032 635.356 702.256C635.364 702.472 635.38 702.72 635.404 703H633.964C633.924 702.632 633.904 702.316 633.904 702.052H633.868C633.668 702.364 633.38 702.624 633.004 702.832C632.636 703.04 632.18 703.144 631.636 703.144C630.98 703.144 630.452 702.968 630.052 702.616C629.66 702.264 629.464 701.772 629.464 701.14C629.464 699.932 630.244 699.232 631.804 699.04L633.904 698.776V698.572C633.904 697.812 633.444 697.432 632.524 697.432ZM630.904 701.104C630.904 701.424 631.004 701.672 631.204 701.848C631.412 702.024 631.696 702.112 632.056 702.112C632.336 702.112 632.62 702.04 632.908 701.896C633.204 701.744 633.448 701.52 633.64 701.224C633.84 700.92 633.94 700.548 633.94 700.108V699.76L632.176 699.988C631.328 700.116 630.904 700.488 630.904 701.104ZM636.913 703V694.432H638.353V703H636.913ZM650.203 700.312C650.131 701.224 649.759 701.936 649.087 702.448C648.423 702.952 647.555 703.204 646.483 703.204C645.587 703.204 644.831 703.016 644.215 702.64C643.607 702.256 643.151 701.728 642.847 701.056C642.543 700.376 642.391 699.596 642.391 698.716C642.391 697.836 642.543 697.06 642.847 696.388C643.151 695.708 643.607 695.18 644.215 694.804C644.831 694.42 645.587 694.228 646.483 694.228C647.571 694.228 648.435 694.464 649.075 694.936C649.723 695.4 650.083 696.088 650.155 697H648.631C648.551 696.448 648.315 696.052 647.923 695.812C647.531 695.564 647.051 695.44 646.483 695.44C645.651 695.44 645.011 695.728 644.563 696.304C644.115 696.872 643.891 697.676 643.891 698.716C643.891 699.756 644.115 700.564 644.563 701.14C645.011 701.708 645.651 701.992 646.483 701.992C647.051 701.992 647.539 701.856 647.947 701.584C648.355 701.312 648.599 700.888 648.679 700.312H650.203ZM654.098 697.432C653.69 697.432 653.362 697.512 653.114 697.672C652.874 697.824 652.738 698.056 652.706 698.368H651.278C651.334 697.08 652.274 696.436 654.098 696.436C655.042 696.436 655.746 696.62 656.21 696.988C656.682 697.356 656.918 697.88 656.918 698.56V701.488C656.918 701.776 656.922 702.032 656.93 702.256C656.938 702.472 656.954 702.72 656.978 703H655.538C655.498 702.632 655.478 702.316 655.478 702.052H655.442C655.242 702.364 654.954 702.624 654.578 702.832C654.21 703.04 653.754 703.144 653.21 703.144C652.554 703.144 652.026 702.968 651.626 702.616C651.234 702.264 651.038 701.772 651.038 701.14C651.038 699.932 651.818 699.232 653.378 699.04L655.478 698.776V698.572C655.478 697.812 655.018 697.432 654.098 697.432ZM652.478 701.104C652.478 701.424 652.578 701.672 652.778 701.848C652.986 702.024 653.27 702.112 653.63 702.112C653.91 702.112 654.194 702.04 654.482 701.896C654.778 701.744 655.022 701.52 655.214 701.224C655.414 700.92 655.514 700.548 655.514 700.108V699.76L653.75 699.988C652.902 700.116 652.478 700.488 652.478 701.104ZM658.487 703V694.432H659.927V703H658.487ZM661.511 703V694.432H662.951V703H661.511ZM666.91 697.384C666.542 697.384 666.242 697.452 666.01 697.588C665.778 697.724 665.662 697.928 665.662 698.2C665.662 698.448 665.746 698.632 665.914 698.752C666.082 698.872 666.374 698.976 666.79 699.064L667.378 699.184C667.93 699.296 668.37 699.42 668.698 699.556C669.026 699.692 669.278 699.884 669.454 700.132C669.638 700.38 669.73 700.716 669.73 701.14C669.73 701.524 669.618 701.868 669.394 702.172C669.17 702.476 668.846 702.716 668.422 702.892C668.006 703.06 667.518 703.144 666.958 703.144C666.038 703.144 665.346 702.972 664.882 702.628C664.418 702.284 664.17 701.756 664.138 701.044H665.578C665.626 701.812 666.086 702.196 666.958 702.196C667.382 702.196 667.714 702.12 667.954 701.968C668.202 701.808 668.326 701.584 668.326 701.296C668.326 701.032 668.234 700.84 668.05 700.72C667.874 700.592 667.566 700.484 667.126 700.396L666.538 700.264C666.002 700.16 665.57 700.04 665.242 699.904C664.922 699.76 664.678 699.568 664.51 699.328C664.342 699.08 664.258 698.756 664.258 698.356C664.258 697.988 664.37 697.66 664.594 697.372C664.826 697.076 665.142 696.848 665.542 696.688C665.95 696.52 666.406 696.436 666.91 696.436C667.702 696.436 668.342 696.6 668.83 696.928C669.318 697.248 669.578 697.728 669.61 698.368H668.17C668.154 698.056 668.03 697.816 667.798 697.648C667.566 697.472 667.27 697.384 666.91 697.384Z" fill="#302F2D"/>
<path d="M739.56 697.12C739.56 697.632 739.444 698.092 739.212 698.5C738.98 698.9 738.636 699.22 738.18 699.46C737.724 699.692 737.168 699.808 736.512 699.808H734.52V703H733.02V694.432H736.512C737.168 694.432 737.724 694.548 738.18 694.78C738.636 695.012 738.98 695.332 739.212 695.74C739.444 696.148 739.56 696.608 739.56 697.12ZM738.06 697.12C738.06 696.696 737.924 696.344 737.652 696.064C737.38 695.784 737.024 695.644 736.584 695.644H734.52V698.596H736.584C737.024 698.596 737.38 698.456 737.652 698.176C737.924 697.896 738.06 697.544 738.06 697.12ZM740.737 696.58H742.177L742.201 697.612H742.237C742.325 697.308 742.525 697.04 742.837 696.808C743.149 696.576 743.537 696.46 744.001 696.46H744.349V697.684H743.761C743.257 697.684 742.869 697.86 742.597 698.212C742.333 698.556 742.201 699.04 742.201 699.664V703H740.761V697.564L740.737 696.58ZM748.013 703.144C747.013 703.144 746.225 702.844 745.649 702.244C745.073 701.644 744.785 700.824 744.785 699.784C744.785 698.744 745.073 697.928 745.649 697.336C746.225 696.736 747.013 696.436 748.013 696.436C749.013 696.436 749.797 696.736 750.365 697.336C750.933 697.928 751.217 698.744 751.217 699.784C751.217 700.832 750.929 701.656 750.353 702.256C749.785 702.848 749.005 703.144 748.013 703.144ZM748.013 702.1C748.589 702.1 749.025 701.896 749.321 701.488C749.625 701.08 749.777 700.512 749.777 699.784C749.777 699.056 749.625 698.492 749.321 698.092C749.025 697.684 748.589 697.48 748.013 697.48C747.437 697.48 746.993 697.684 746.681 698.092C746.377 698.5 746.225 699.064 746.225 699.784C746.225 700.504 746.377 701.072 746.681 701.488C746.993 701.896 747.437 702.1 748.013 702.1ZM752.96 703V697.636H751.964V696.58H752.96V696.04C752.96 695.488 753.096 695.084 753.368 694.828C753.648 694.564 754.104 694.432 754.736 694.432H755.768V695.464H755C754.784 695.464 754.628 695.512 754.532 695.608C754.436 695.696 754.388 695.84 754.388 696.04V696.58H758.192V703H756.752V697.636H754.388V703H752.96ZM756.704 695.74V694.432H758.216V695.74H756.704ZM760.332 695.212H761.772V696.58H763.056V697.636H761.772V701.392C761.772 701.592 761.808 701.74 761.88 701.836C761.96 701.924 762.088 701.968 762.264 701.968H762.996V703H761.82C761.292 703 760.912 702.868 760.68 702.604C760.448 702.34 760.332 701.936 760.332 701.392V697.636H759.3V696.58H760.332V695.212ZM766.687 699.784C766.687 699.056 766.815 698.44 767.071 697.936C767.335 697.432 767.687 697.056 768.127 696.808C768.575 696.56 769.075 696.436 769.627 696.436C770.043 696.436 770.431 696.528 770.791 696.712C771.151 696.888 771.419 697.1 771.595 697.348H771.607V694.432H773.047V701.44L773.083 703H771.655L771.607 702.112H771.595C771.459 702.4 771.207 702.644 770.839 702.844C770.479 703.044 770.059 703.144 769.579 703.144C768.683 703.144 767.975 702.848 767.455 702.256C766.943 701.664 766.687 700.84 766.687 699.784ZM771.727 699.784C771.727 699.088 771.567 698.536 771.247 698.128C770.935 697.712 770.499 697.504 769.939 697.504C769.379 697.504 768.935 697.712 768.607 698.128C768.287 698.536 768.127 699.088 768.127 699.784C768.127 700.48 768.287 701.036 768.607 701.452C768.935 701.868 769.379 702.076 769.939 702.076C770.499 702.076 770.935 701.868 771.247 701.452C771.567 701.036 771.727 700.48 771.727 699.784ZM774.663 695.74V694.432H776.175V695.74H774.663ZM774.699 703V696.58H776.139V703H774.699ZM780.133 697.384C779.765 697.384 779.465 697.452 779.233 697.588C779.001 697.724 778.885 697.928 778.885 698.2C778.885 698.448 778.969 698.632 779.137 698.752C779.305 698.872 779.597 698.976 780.013 699.064L780.601 699.184C781.153 699.296 781.593 699.42 781.921 699.556C782.249 699.692 782.501 699.884 782.677 700.132C782.861 700.38 782.953 700.716 782.953 701.14C782.953 701.524 782.841 701.868 782.617 702.172C782.393 702.476 782.069 702.716 781.645 702.892C781.229 703.06 780.741 703.144 780.181 703.144C779.261 703.144 778.569 702.972 778.105 702.628C777.641 702.284 777.393 701.756 777.361 701.044H778.801C778.849 701.812 779.309 702.196 780.181 702.196C780.605 702.196 780.937 702.12 781.177 701.968C781.425 701.808 781.549 701.584 781.549 701.296C781.549 701.032 781.457 700.84 781.273 700.72C781.097 700.592 780.789 700.484 780.349 700.396L779.761 700.264C779.225 700.16 778.793 700.04 778.465 699.904C778.145 699.76 777.901 699.568 777.733 699.328C777.565 699.08 777.481 698.756 777.481 698.356C777.481 697.988 777.593 697.66 777.817 697.372C778.049 697.076 778.365 696.848 778.765 696.688C779.173 696.52 779.629 696.436 780.133 696.436C780.925 696.436 781.565 696.6 782.053 696.928C782.541 697.248 782.801 697.728 782.833 698.368H781.393C781.377 698.056 781.253 697.816 781.021 697.648C780.789 697.472 780.493 697.384 780.133 697.384ZM784.695 695.212H786.135V696.58H787.419V697.636H786.135V701.392C786.135 701.592 786.171 701.74 786.243 701.836C786.323 701.924 786.451 701.968 786.627 701.968H787.359V703H786.183C785.655 703 785.275 702.868 785.043 702.604C784.811 702.34 784.695 701.936 784.695 701.392V697.636H783.663V696.58H784.695V695.212ZM788.62 696.58H790.06L790.084 697.612H790.12C790.208 697.308 790.408 697.04 790.72 696.808C791.032 696.576 791.42 696.46 791.884 696.46H792.232V697.684H791.644C791.14 697.684 790.752 697.86 790.48 698.212C790.216 698.556 790.084 699.04 790.084 699.664V703H788.644V697.564L788.62 696.58ZM793.261 695.74V694.432H794.773V695.74H793.261ZM793.297 703V696.58H794.737V703H793.297ZM802.751 699.784C802.751 700.472 802.619 701.072 802.355 701.584C802.099 702.088 801.743 702.476 801.287 702.748C800.831 703.012 800.319 703.144 799.751 703.144C799.287 703.144 798.883 703.044 798.539 702.844C798.203 702.644 797.971 702.4 797.843 702.112H797.831L797.783 703H796.354L796.391 701.44V694.432H797.831V697.348H797.843C798.019 697.1 798.291 696.888 798.659 696.712C799.027 696.528 799.419 696.436 799.835 696.436C800.379 696.436 800.871 696.56 801.311 696.808C801.751 697.056 802.099 697.432 802.355 697.936C802.619 698.44 802.751 699.056 802.751 699.784ZM797.711 699.784C797.711 700.48 797.867 701.036 798.179 701.452C798.499 701.868 798.939 702.076 799.499 702.076C800.059 702.076 800.499 701.868 800.819 701.452C801.147 701.036 801.311 700.48 801.311 699.784C801.311 699.088 801.147 698.536 800.819 698.128C800.499 697.712 800.059 697.504 799.499 697.504C798.939 697.504 798.499 697.712 798.179 698.128C797.867 698.536 797.711 699.088 797.711 699.784ZM809.743 703H808.315L808.279 702.064H808.243C808.091 702.368 807.839 702.624 807.487 702.832C807.143 703.04 806.727 703.144 806.239 703.144C805.527 703.144 804.967 702.94 804.559 702.532C804.159 702.124 803.959 701.544 803.959 700.792V696.58H805.399V700.588C805.399 701.076 805.507 701.444 805.723 701.692C805.939 701.94 806.255 702.064 806.671 702.064C807.159 702.064 807.547 701.896 807.835 701.56C808.131 701.216 808.279 700.764 808.279 700.204V696.58H809.719V702.016L809.743 703ZM811.859 695.212H813.299V696.58H814.583V697.636H813.299V701.392C813.299 701.592 813.335 701.74 813.407 701.836C813.487 701.924 813.615 701.968 813.791 701.968H814.523V703H813.347C812.819 703 812.439 702.868 812.207 702.604C811.975 702.34 811.859 701.936 811.859 701.392V697.636H810.827V696.58H811.859V695.212ZM815.784 695.74V694.432H817.296V695.74H815.784ZM815.82 703V696.58H817.26V703H815.82ZM821.794 703.144C820.794 703.144 820.006 702.844 819.43 702.244C818.854 701.644 818.566 700.824 818.566 699.784C818.566 698.744 818.854 697.928 819.43 697.336C820.006 696.736 820.794 696.436 821.794 696.436C822.794 696.436 823.578 696.736 824.146 697.336C824.714 697.928 824.998 698.744 824.998 699.784C824.998 700.832 824.71 701.656 824.134 702.256C823.566 702.848 822.786 703.144 821.794 703.144ZM821.794 702.1C822.37 702.1 822.806 701.896 823.102 701.488C823.406 701.08 823.558 700.512 823.558 699.784C823.558 699.056 823.406 698.492 823.102 698.092C822.806 697.684 822.37 697.48 821.794 697.48C821.218 697.48 820.774 697.684 820.462 698.092C820.158 698.5 820.006 699.064 820.006 699.784C820.006 700.504 820.158 701.072 820.462 701.488C820.774 701.896 821.218 702.1 821.794 702.1ZM826.272 696.58H827.7L827.736 697.528H827.772C827.924 697.224 828.18 696.968 828.54 696.76C828.9 696.544 829.316 696.436 829.788 696.436C830.5 696.436 831.068 696.648 831.492 697.072C831.916 697.488 832.128 698.068 832.128 698.812V703H830.688V699.016C830.688 698.536 830.572 698.168 830.34 697.912C830.108 697.656 829.78 697.528 829.356 697.528C828.86 697.528 828.464 697.7 828.168 698.044C827.88 698.388 827.736 698.84 827.736 699.4V703H826.296V697.6L826.272 696.58ZM836.031 697.384C835.663 697.384 835.363 697.452 835.131 697.588C834.899 697.724 834.783 697.928 834.783 698.2C834.783 698.448 834.867 698.632 835.035 698.752C835.203 698.872 835.495 698.976 835.911 699.064L836.499 699.184C837.051 699.296 837.491 699.42 837.819 699.556C838.147 699.692 838.399 699.884 838.575 700.132C838.759 700.38 838.851 700.716 838.851 701.14C838.851 701.524 838.739 701.868 838.515 702.172C838.291 702.476 837.967 702.716 837.543 702.892C837.127 703.06 836.639 703.144 836.079 703.144C835.159 703.144 834.467 702.972 834.003 702.628C833.539 702.284 833.291 701.756 833.259 701.044H834.699C834.747 701.812 835.207 702.196 836.079 702.196C836.503 702.196 836.835 702.12 837.075 701.968C837.323 701.808 837.447 701.584 837.447 701.296C837.447 701.032 837.355 700.84 837.171 700.72C836.995 700.592 836.687 700.484 836.247 700.396L835.659 700.264C835.123 700.16 834.691 700.04 834.363 699.904C834.043 699.76 833.799 699.568 833.631 699.328C833.463 699.08 833.379 698.756 833.379 698.356C833.379 697.988 833.491 697.66 833.715 697.372C833.947 697.076 834.263 696.848 834.663 696.688C835.071 696.52 835.527 696.436 836.031 696.436C836.823 696.436 837.463 696.6 837.951 696.928C838.439 697.248 838.699 697.728 838.731 698.368H837.291C837.275 698.056 837.151 697.816 836.919 697.648C836.687 697.472 836.391 697.384 836.031 697.384Z" fill="#302F2D"/>
<circle cx="424" cy="698" r="4" fill="#FC6434"/>
<circle cx="588" cy="698" r="4" fill="#CCD3FA"/>
<circle cx="722" cy="698" r="4" fill="#4C67EF"/>
<rect x="566" y="15" width="682" height="1" fill="#D4D3D1"/>
<rect x="86" y="15" width="451" height="1" fill="#D4D3D1"/>
<rect x="212" width="198" height="32" rx="16" fill="#D4D3D1"/>
<rect x="808" width="198" height="32" rx="16" fill="#D4D3D1"/>
<path d="M230.876 10.576H232.876V22H230.876V10.576ZM236.89 13.44H238.794L238.842 14.704H238.89C239.093 14.2987 239.434 13.9573 239.914 13.68C240.394 13.392 240.949 13.248 241.578 13.248C242.528 13.248 243.285 13.5307 243.85 14.096C244.416 14.6507 244.698 15.424 244.698 16.416V22H242.778V16.688C242.778 16.048 242.624 15.5573 242.314 15.216C242.005 14.8747 241.568 14.704 241.002 14.704C240.341 14.704 239.813 14.9333 239.418 15.392C239.034 15.8507 238.842 16.4533 238.842 17.2V22H236.922V14.8L236.89 13.44ZM251.618 20.288C251.895 19.264 252.231 18.1813 252.626 17.04L253.906 13.44H255.89L252.658 22H250.514L247.282 13.44H249.266L250.546 17.04C250.908 18.032 251.244 19.1147 251.554 20.288H251.618ZM259.937 18.288C260.012 19.1307 260.247 19.776 260.641 20.224C261.036 20.6613 261.591 20.88 262.305 20.88C262.828 20.88 263.276 20.7467 263.649 20.48C264.023 20.2133 264.263 19.8347 264.369 19.344H266.257C266.151 20.2507 265.729 20.9547 264.993 21.456C264.268 21.9467 263.383 22.192 262.337 22.192C260.972 22.192 259.916 21.8027 259.169 21.024C258.423 20.2347 258.049 19.1307 258.049 17.712C258.049 16.304 258.423 15.2107 259.169 14.432C259.916 13.6427 260.935 13.248 262.225 13.248C263.591 13.248 264.625 13.6533 265.329 14.464C266.044 15.2747 266.401 16.4693 266.401 18.048V18.288H259.937ZM264.497 17.008C264.412 16.2187 264.177 15.616 263.793 15.2C263.409 14.7733 262.887 14.56 262.225 14.56C261.575 14.56 261.052 14.7733 260.657 15.2C260.273 15.616 260.039 16.2187 259.953 17.008H264.497ZM272.858 14.512C272.368 14.512 271.968 14.6027 271.658 14.784C271.349 14.9653 271.194 15.2373 271.194 15.6C271.194 15.9307 271.306 16.176 271.53 16.336C271.754 16.496 272.144 16.6347 272.698 16.752L273.482 16.912C274.218 17.0613 274.805 17.2267 275.242 17.408C275.68 17.5893 276.016 17.8453 276.25 18.176C276.496 18.5067 276.618 18.9547 276.618 19.52C276.618 20.032 276.469 20.4907 276.17 20.896C275.872 21.3013 275.44 21.6213 274.874 21.856C274.32 22.08 273.669 22.192 272.922 22.192C271.696 22.192 270.773 21.9627 270.154 21.504C269.536 21.0453 269.205 20.3413 269.162 19.392H271.082C271.146 20.416 271.76 20.928 272.922 20.928C273.488 20.928 273.93 20.8267 274.25 20.624C274.581 20.4107 274.746 20.112 274.746 19.728C274.746 19.376 274.624 19.12 274.378 18.96C274.144 18.7893 273.733 18.6453 273.146 18.528L272.362 18.352C271.648 18.2133 271.072 18.0533 270.634 17.872C270.208 17.68 269.882 17.424 269.658 17.104C269.434 16.7733 269.322 16.3413 269.322 15.808C269.322 15.3173 269.472 14.88 269.77 14.496C270.08 14.1013 270.501 13.7973 271.034 13.584C271.578 13.36 272.186 13.248 272.858 13.248C273.914 13.248 274.768 13.4667 275.418 13.904C276.069 14.3307 276.416 14.9707 276.458 15.824H274.538C274.517 15.408 274.352 15.088 274.042 14.864C273.733 14.6293 273.338 14.512 272.858 14.512ZM280.541 11.616H282.461V13.44H284.173V14.848H282.461V19.856C282.461 20.1227 282.509 20.32 282.605 20.448C282.712 20.5653 282.883 20.624 283.117 20.624H284.093V22H282.525C281.821 22 281.315 21.824 281.005 21.472C280.696 21.12 280.541 20.5813 280.541 19.856V14.848H279.165V13.44H280.541V11.616ZM298.159 16.496C298.159 15.8453 297.999 15.3813 297.679 15.104C297.369 14.8267 296.991 14.688 296.543 14.688C296.063 14.688 295.636 14.864 295.263 15.216C294.889 15.568 294.703 16.144 294.703 16.944V22H292.783V16.496C292.783 15.8453 292.623 15.3813 292.303 15.104C291.993 14.8267 291.615 14.688 291.167 14.688C290.687 14.688 290.26 14.864 289.887 15.216C289.513 15.568 289.327 16.144 289.327 16.944V22H287.407V14.752L287.375 13.44H289.295L289.327 14.544H289.375C289.535 14.16 289.849 13.8507 290.319 13.616C290.799 13.3707 291.289 13.248 291.791 13.248C292.441 13.248 292.985 13.3813 293.423 13.648C293.871 13.904 294.191 14.256 294.383 14.704H294.415C294.639 14.2453 294.996 13.888 295.487 13.632C295.988 13.376 296.548 13.248 297.167 13.248C298.063 13.248 298.772 13.504 299.295 14.016C299.817 14.5173 300.079 15.248 300.079 16.208V22H298.159V16.496ZM305.181 18.288C305.256 19.1307 305.49 19.776 305.885 20.224C306.28 20.6613 306.834 20.88 307.549 20.88C308.072 20.88 308.52 20.7467 308.893 20.48C309.266 20.2133 309.506 19.8347 309.613 19.344H311.501C311.394 20.2507 310.973 20.9547 310.237 21.456C309.512 21.9467 308.626 22.192 307.581 22.192C306.216 22.192 305.16 21.8027 304.413 21.024C303.666 20.2347 303.293 19.1307 303.293 17.712C303.293 16.304 303.666 15.2107 304.413 14.432C305.16 13.6427 306.178 13.248 307.469 13.248C308.834 13.248 309.869 13.6533 310.573 14.464C311.288 15.2747 311.645 16.4693 311.645 18.048V18.288H305.181ZM309.741 17.008C309.656 16.2187 309.421 15.616 309.037 15.2C308.653 14.7733 308.13 14.56 307.469 14.56C306.818 14.56 306.296 14.7733 305.901 15.2C305.517 15.616 305.282 16.2187 305.197 17.008H309.741ZM314.934 13.44H316.838L316.886 14.704H316.934C317.137 14.2987 317.478 13.9573 317.958 13.68C318.438 13.392 318.993 13.248 319.622 13.248C320.571 13.248 321.329 13.5307 321.894 14.096C322.459 14.6507 322.742 15.424 322.742 16.416V22H320.822V16.688C320.822 16.048 320.667 15.5573 320.358 15.216C320.049 14.8747 319.611 14.704 319.046 14.704C318.385 14.704 317.857 14.9333 317.462 15.392C317.078 15.8507 316.886 16.4533 316.886 17.2V22H314.966V14.8L314.934 13.44ZM327.004 11.616H328.924V13.44H330.636V14.848H328.924V19.856C328.924 20.1227 328.972 20.32 329.068 20.448C329.174 20.5653 329.345 20.624 329.58 20.624H330.556V22H328.988C328.284 22 327.777 21.824 327.468 21.472C327.158 21.12 327.004 20.5813 327.004 19.856V14.848H325.628V13.44H327.004V11.616ZM348.117 14.16C348.117 14.8427 347.963 15.456 347.653 16C347.344 16.5333 346.885 16.96 346.277 17.28C345.669 17.5893 344.928 17.744 344.053 17.744H341.397V22H339.397V10.576H344.053C344.928 10.576 345.669 10.7307 346.277 11.04C346.885 11.3493 347.344 11.776 347.653 12.32C347.963 12.864 348.117 13.4773 348.117 14.16ZM346.117 14.16C346.117 13.5947 345.936 13.1253 345.573 12.752C345.211 12.3787 344.736 12.192 344.149 12.192H341.397V16.128H344.149C344.736 16.128 345.211 15.9413 345.573 15.568C345.936 15.1947 346.117 14.7253 346.117 14.16ZM353.207 10.576V14.704H353.255C353.458 14.2987 353.799 13.9573 354.279 13.68C354.759 13.392 355.319 13.248 355.959 13.248C356.909 13.248 357.661 13.5307 358.215 14.096C358.781 14.6507 359.063 15.424 359.063 16.416V22H357.143V16.688C357.143 16.048 356.989 15.5573 356.679 15.216C356.37 14.8747 355.938 14.704 355.383 14.704C354.711 14.704 354.178 14.9333 353.783 15.392C353.399 15.84 353.207 16.4427 353.207 17.2V22H351.287V10.576H353.207ZM366.316 14.576C365.772 14.576 365.334 14.6827 365.004 14.896C364.684 15.0987 364.502 15.408 364.46 15.824H362.556C362.63 14.1067 363.884 13.248 366.316 13.248C367.574 13.248 368.513 13.4933 369.132 13.984C369.761 14.4747 370.076 15.1733 370.076 16.08V19.984C370.076 20.368 370.081 20.7093 370.092 21.008C370.102 21.296 370.124 21.6267 370.156 22H368.236C368.182 21.5093 368.156 21.088 368.156 20.736H368.108C367.841 21.152 367.457 21.4987 366.956 21.776C366.465 22.0533 365.857 22.192 365.132 22.192C364.257 22.192 363.553 21.9573 363.02 21.488C362.497 21.0187 362.236 20.3627 362.236 19.52C362.236 17.9093 363.276 16.976 365.356 16.72L368.156 16.368V16.096C368.156 15.0827 367.542 14.576 366.316 14.576ZM364.156 19.472C364.156 19.8987 364.289 20.2293 364.556 20.464C364.833 20.6987 365.212 20.816 365.692 20.816C366.065 20.816 366.444 20.72 366.828 20.528C367.222 20.3253 367.548 20.0267 367.804 19.632C368.07 19.2267 368.204 18.7307 368.204 18.144V17.68L365.852 17.984C364.721 18.1547 364.156 18.6507 364.156 19.472ZM376.936 14.512C376.446 14.512 376.046 14.6027 375.736 14.784C375.427 14.9653 375.272 15.2373 375.272 15.6C375.272 15.9307 375.384 16.176 375.608 16.336C375.832 16.496 376.222 16.6347 376.776 16.752L377.56 16.912C378.296 17.0613 378.883 17.2267 379.32 17.408C379.758 17.5893 380.094 17.8453 380.328 18.176C380.574 18.5067 380.696 18.9547 380.696 19.52C380.696 20.032 380.547 20.4907 380.248 20.896C379.95 21.3013 379.518 21.6213 378.952 21.856C378.398 22.08 377.747 22.192 377 22.192C375.774 22.192 374.851 21.9627 374.232 21.504C373.614 21.0453 373.283 20.3413 373.24 19.392H375.16C375.224 20.416 375.838 20.928 377 20.928C377.566 20.928 378.008 20.8267 378.328 20.624C378.659 20.4107 378.824 20.112 378.824 19.728C378.824 19.376 378.702 19.12 378.456 18.96C378.222 18.7893 377.811 18.6453 377.224 18.528L376.44 18.352C375.726 18.2133 375.15 18.0533 374.712 17.872C374.286 17.68 373.96 17.424 373.736 17.104C373.512 16.7733 373.4 16.3413 373.4 15.808C373.4 15.3173 373.55 14.88 373.848 14.496C374.158 14.1013 374.579 13.7973 375.112 13.584C375.656 13.36 376.264 13.248 376.936 13.248C377.992 13.248 378.846 13.4667 379.496 13.904C380.147 14.3307 380.494 14.9707 380.536 15.824H378.616C378.595 15.408 378.43 15.088 378.12 14.864C377.811 14.6293 377.416 14.512 376.936 14.512ZM385.387 18.288C385.462 19.1307 385.697 19.776 386.091 20.224C386.486 20.6613 387.041 20.88 387.755 20.88C388.278 20.88 388.726 20.7467 389.099 20.48C389.473 20.2133 389.713 19.8347 389.819 19.344H391.707C391.601 20.2507 391.179 20.9547 390.443 21.456C389.718 21.9467 388.833 22.192 387.787 22.192C386.422 22.192 385.366 21.8027 384.619 21.024C383.873 20.2347 383.499 19.1307 383.499 17.712C383.499 16.304 383.873 15.2107 384.619 14.432C385.366 13.6427 386.385 13.248 387.675 13.248C389.041 13.248 390.075 13.6533 390.779 14.464C391.494 15.2747 391.851 16.4693 391.851 18.048V18.288H385.387ZM389.947 17.008C389.862 16.2187 389.627 15.616 389.243 15.2C388.859 14.7733 388.337 14.56 387.675 14.56C387.025 14.56 386.502 14.7733 386.107 15.2C385.723 15.616 385.489 16.2187 385.403 17.008H389.947Z" fill="white"/>
<path d="M827.656 10.576C829.416 10.576 830.808 11.056 831.832 12.016C832.867 12.976 833.384 14.4 833.384 16.288C833.384 18.176 832.872 19.6 831.848 20.56C830.824 21.52 829.427 22 827.656 22H823.752V10.576H827.656ZM825.752 12.224V20.352H827.496C828.723 20.352 829.678 20.0107 830.36 19.328C831.043 18.6453 831.384 17.632 831.384 16.288C831.384 14.9333 831.043 13.92 830.36 13.248C829.678 12.5653 828.723 12.224 827.496 12.224H825.752ZM836.704 12.32V10.576H838.72V12.32H836.704ZM836.752 22V13.44H838.672V22H836.752ZM845.597 14.512C845.107 14.512 844.707 14.6027 844.397 14.784C844.088 14.9653 843.933 15.2373 843.933 15.6C843.933 15.9307 844.045 16.176 844.269 16.336C844.493 16.496 844.883 16.6347 845.437 16.752L846.221 16.912C846.957 17.0613 847.544 17.2267 847.981 17.408C848.419 17.5893 848.755 17.8453 848.989 18.176C849.235 18.5067 849.357 18.9547 849.357 19.52C849.357 20.032 849.208 20.4907 848.909 20.896C848.611 21.3013 848.179 21.6213 847.613 21.856C847.059 22.08 846.408 22.192 845.661 22.192C844.435 22.192 843.512 21.9627 842.893 21.504C842.275 21.0453 841.944 20.3413 841.901 19.392H843.821C843.885 20.416 844.499 20.928 845.661 20.928C846.227 20.928 846.669 20.8267 846.989 20.624C847.32 20.4107 847.485 20.112 847.485 19.728C847.485 19.376 847.363 19.12 847.117 18.96C846.883 18.7893 846.472 18.6453 845.885 18.528L845.101 18.352C844.387 18.2133 843.811 18.0533 843.373 17.872C842.947 17.68 842.621 17.424 842.397 17.104C842.173 16.7733 842.061 16.3413 842.061 15.808C842.061 15.3173 842.211 14.88 842.509 14.496C842.819 14.1013 843.24 13.7973 843.773 13.584C844.317 13.36 844.925 13.248 845.597 13.248C846.653 13.248 847.507 13.4667 848.157 13.904C848.808 14.3307 849.155 14.9707 849.197 15.824H847.277C847.256 15.408 847.091 15.088 846.781 14.864C846.472 14.6293 846.077 14.512 845.597 14.512ZM853.28 11.616H855.2V13.44H856.912V14.848H855.2V19.856C855.2 20.1227 855.248 20.32 855.344 20.448C855.451 20.5653 855.622 20.624 855.856 20.624H856.832V22H855.264C854.56 22 854.054 21.824 853.744 21.472C853.435 21.12 853.28 20.5813 853.28 19.856V14.848H851.904V13.44H853.28V11.616ZM860.114 13.44H862.034L862.066 14.816H862.114C862.231 14.4107 862.498 14.0533 862.914 13.744C863.33 13.4347 863.847 13.28 864.466 13.28H864.93V14.912H864.146C863.474 14.912 862.956 15.1467 862.594 15.616C862.242 16.0747 862.066 16.72 862.066 17.552V22H860.146V14.752L860.114 13.44ZM867.901 12.32V10.576H869.917V12.32H867.901ZM867.949 22V13.44H869.869V22H867.949ZM882.154 17.712C882.154 18.6293 881.978 19.4293 881.626 20.112C881.285 20.784 880.81 21.3013 880.202 21.664C879.594 22.016 878.912 22.192 878.154 22.192C877.536 22.192 876.997 22.0587 876.538 21.792C876.09 21.5253 875.781 21.2 875.61 20.816H875.594L875.53 22H873.626L873.674 19.92V10.576H875.594V14.464H875.61C875.845 14.1333 876.208 13.8507 876.698 13.616C877.189 13.3707 877.712 13.248 878.266 13.248C878.992 13.248 879.648 13.4133 880.234 13.744C880.821 14.0747 881.285 14.576 881.626 15.248C881.978 15.92 882.154 16.7413 882.154 17.712ZM875.434 17.712C875.434 18.64 875.642 19.3813 876.058 19.936C876.485 20.4907 877.072 20.768 877.818 20.768C878.565 20.768 879.152 20.4907 879.578 19.936C880.016 19.3813 880.234 18.64 880.234 17.712C880.234 16.784 880.016 16.048 879.578 15.504C879.152 14.9493 878.565 14.672 877.818 14.672C877.072 14.672 876.485 14.9493 876.058 15.504C875.642 16.048 875.434 16.784 875.434 17.712ZM893.077 22H891.173L891.125 20.752H891.077C890.874 21.1573 890.538 21.4987 890.069 21.776C889.61 22.0533 889.056 22.192 888.405 22.192C887.456 22.192 886.709 21.92 886.165 21.376C885.632 20.832 885.365 20.0587 885.365 19.056V13.44H887.285V18.784C887.285 19.4347 887.429 19.9253 887.717 20.256C888.005 20.5867 888.426 20.752 888.981 20.752C889.632 20.752 890.149 20.528 890.533 20.08C890.928 19.6213 891.125 19.0187 891.125 18.272V13.44H893.045V20.688L893.077 22ZM897.499 11.616H899.419V13.44H901.131V14.848H899.419V19.856C899.419 20.1227 899.467 20.32 899.563 20.448C899.67 20.5653 899.84 20.624 900.075 20.624H901.051V22H899.483C898.779 22 898.272 21.824 897.963 21.472C897.654 21.12 897.499 20.5813 897.499 19.856V14.848H896.123V13.44H897.499V11.616ZM904.333 12.32V10.576H906.349V12.32H904.333ZM904.381 22V13.44H906.301V22H904.381ZM913.946 22.192C912.612 22.192 911.562 21.792 910.794 20.992C910.026 20.192 909.642 19.0987 909.642 17.712C909.642 16.3253 910.026 15.2373 910.794 14.448C911.562 13.648 912.612 13.248 913.946 13.248C915.279 13.248 916.324 13.648 917.082 14.448C917.839 15.2373 918.218 16.3253 918.218 17.712C918.218 19.1093 917.834 20.208 917.066 21.008C916.308 21.7973 915.268 22.192 913.946 22.192ZM913.946 20.8C914.714 20.8 915.295 20.528 915.69 19.984C916.095 19.44 916.298 18.6827 916.298 17.712C916.298 16.7413 916.095 15.9893 915.69 15.456C915.295 14.912 914.714 14.64 913.946 14.64C913.178 14.64 912.586 14.912 912.17 15.456C911.764 16 911.562 16.752 911.562 17.712C911.562 18.672 911.764 19.4293 912.17 19.984C912.586 20.528 913.178 20.8 913.946 20.8ZM921.517 13.44H923.421L923.469 14.704H923.517C923.72 14.2987 924.061 13.9573 924.541 13.68C925.021 13.392 925.576 13.248 926.205 13.248C927.154 13.248 927.912 13.5307 928.477 14.096C929.042 14.6507 929.325 15.424 929.325 16.416V22H927.405V16.688C927.405 16.048 927.25 15.5573 926.941 15.216C926.632 14.8747 926.194 14.704 925.629 14.704C924.968 14.704 924.44 14.9333 924.045 15.392C923.661 15.8507 923.469 16.4533 923.469 17.2V22H921.549V14.8L921.517 13.44ZM947.241 14.16C947.241 14.8427 947.086 15.456 946.777 16C946.468 16.5333 946.009 16.96 945.401 17.28C944.793 17.5893 944.052 17.744 943.177 17.744H940.521V22H938.521V10.576H943.177C944.052 10.576 944.793 10.7307 945.401 11.04C946.009 11.3493 946.468 11.776 946.777 12.32C947.086 12.864 947.241 13.4773 947.241 14.16ZM945.241 14.16C945.241 13.5947 945.06 13.1253 944.697 12.752C944.334 12.3787 943.86 12.192 943.273 12.192H940.521V16.128H943.273C943.86 16.128 944.334 15.9413 944.697 15.568C945.06 15.1947 945.241 14.7253 945.241 14.16ZM952.331 10.576V14.704H952.379C952.581 14.2987 952.923 13.9573 953.403 13.68C953.883 13.392 954.443 13.248 955.083 13.248C956.032 13.248 956.784 13.5307 957.339 14.096C957.904 14.6507 958.187 15.424 958.187 16.416V22H956.267V16.688C956.267 16.048 956.112 15.5573 955.803 15.216C955.493 14.8747 955.061 14.704 954.507 14.704C953.835 14.704 953.301 14.9333 952.907 15.392C952.523 15.84 952.331 16.4427 952.331 17.2V22H950.411V10.576H952.331ZM965.439 14.576C964.895 14.576 964.458 14.6827 964.127 14.896C963.807 15.0987 963.626 15.408 963.583 15.824H961.679C961.754 14.1067 963.007 13.248 965.439 13.248C966.698 13.248 967.637 13.4933 968.255 13.984C968.885 14.4747 969.199 15.1733 969.199 16.08V19.984C969.199 20.368 969.205 20.7093 969.215 21.008C969.226 21.296 969.247 21.6267 969.279 22H967.359C967.306 21.5093 967.279 21.088 967.279 20.736H967.231C966.965 21.152 966.581 21.4987 966.079 21.776C965.589 22.0533 964.981 22.192 964.255 22.192C963.381 22.192 962.677 21.9573 962.143 21.488C961.621 21.0187 961.359 20.3627 961.359 19.52C961.359 17.9093 962.399 16.976 964.479 16.72L967.279 16.368V16.096C967.279 15.0827 966.666 14.576 965.439 14.576ZM963.279 19.472C963.279 19.8987 963.413 20.2293 963.679 20.464C963.957 20.6987 964.335 20.816 964.815 20.816C965.189 20.816 965.567 20.72 965.951 20.528C966.346 20.3253 966.671 20.0267 966.927 19.632C967.194 19.2267 967.327 18.7307 967.327 18.144V17.68L964.975 17.984C963.845 18.1547 963.279 18.6507 963.279 19.472ZM976.06 14.512C975.569 14.512 975.169 14.6027 974.86 14.784C974.551 14.9653 974.396 15.2373 974.396 15.6C974.396 15.9307 974.508 16.176 974.732 16.336C974.956 16.496 975.345 16.6347 975.9 16.752L976.684 16.912C977.42 17.0613 978.007 17.2267 978.444 17.408C978.881 17.5893 979.217 17.8453 979.452 18.176C979.697 18.5067 979.82 18.9547 979.82 19.52C979.82 20.032 979.671 20.4907 979.372 20.896C979.073 21.3013 978.641 21.6213 978.076 21.856C977.521 22.08 976.871 22.192 976.124 22.192C974.897 22.192 973.975 21.9627 973.356 21.504C972.737 21.0453 972.407 20.3413 972.364 19.392H974.284C974.348 20.416 974.961 20.928 976.124 20.928C976.689 20.928 977.132 20.8267 977.452 20.624C977.783 20.4107 977.948 20.112 977.948 19.728C977.948 19.376 977.825 19.12 977.58 18.96C977.345 18.7893 976.935 18.6453 976.348 18.528L975.564 18.352C974.849 18.2133 974.273 18.0533 973.836 17.872C973.409 17.68 973.084 17.424 972.86 17.104C972.636 16.7733 972.524 16.3413 972.524 15.808C972.524 15.3173 972.673 14.88 972.972 14.496C973.281 14.1013 973.703 13.7973 974.236 13.584C974.78 13.36 975.388 13.248 976.06 13.248C977.116 13.248 977.969 13.4667 978.62 13.904C979.271 14.3307 979.617 14.9707 979.66 15.824H977.74C977.719 15.408 977.553 15.088 977.244 14.864C976.935 14.6293 976.54 14.512 976.06 14.512ZM984.511 18.288C984.585 19.1307 984.82 19.776 985.215 20.224C985.609 20.6613 986.164 20.88 986.879 20.88C987.401 20.88 987.849 20.7467 988.223 20.48C988.596 20.2133 988.836 19.8347 988.943 19.344H990.831C990.724 20.2507 990.303 20.9547 989.567 21.456C988.841 21.9467 987.956 22.192 986.911 22.192C985.545 22.192 984.489 21.8027 983.743 21.024C982.996 20.2347 982.623 19.1307 982.623 17.712C982.623 16.304 982.996 15.2107 983.743 14.432C984.489 13.6427 985.508 13.248 986.799 13.248C988.164 13.248 989.199 13.6533 989.903 14.464C990.617 15.2747 990.975 16.4693 990.975 18.048V18.288H984.511ZM989.071 17.008C988.985 16.2187 988.751 15.616 988.367 15.2C987.983 14.7733 987.46 14.56 986.799 14.56C986.148 14.56 985.625 14.7733 985.231 15.2C984.847 15.616 984.612 16.2187 984.527 17.008H989.071Z" fill="white"/>
<path d="M141.5 426.501C188.833 499.335 319 625.5 470.5 593.501C622 561.503 679 453 730.5 371C782 289 921.5 34.5014 1246.5 34.5015" stroke="#FC6434" stroke-width="2"/>
</svg>
